<?xml version="1.0" encoding="utf-8"?>
<!-- Generator: Adobe Illustrator 24.3.0, SVG Export Plug-In . SVG Version: 6.00 Build 0)  -->
<svg version="1.1" id="Layer_1" xmlns="http://www.w3.org/2000/svg" xmlns:xlink="http://www.w3.org/1999/xlink" x="0px" y="0px"
	 viewBox="0 0 546.26 54.43" style="enable-background:new 0 0 546.26 54.43;" xml:space="preserve">
<path id="A" d="M32.26,4.68L51.7,44.86c0.82,1.63,1.22,2.86,1.22,3.67c0,1.73-1.39,3.29-4.18,4.68c-1.63,0.82-2.92,1.22-3.85,1.22
	s-1.7-0.22-2.3-0.65c-0.6-0.43-1.03-0.89-1.3-1.37c-0.26-0.48-0.64-1.2-1.12-2.16l-3.74-7.78H16.49l-3.74,7.78
	c-0.48,0.96-0.85,1.66-1.12,2.09c-0.26,0.43-0.7,0.88-1.3,1.33c-0.6,0.46-1.37,0.68-2.3,0.68s-2.22-0.41-3.85-1.22
	C1.39,51.79,0,50.26,0,48.53c0-0.82,0.41-2.04,1.22-3.67L20.66,4.61c0.53-1.1,1.33-1.99,2.41-2.66c1.08-0.67,2.22-1.01,3.42-1.01
	C29.09,0.94,31.01,2.18,32.26,4.68z M26.42,21.96l-4.75,9.86h9.58L26.42,21.96z"/>
<path id="W" d="M111.02,1.22c3.22,1.15,4.82,2.69,4.82,4.61c0,0.62-0.29,1.8-0.86,3.53l-13.82,39.96c-0.1,0.34-0.26,0.74-0.5,1.22
	c-0.24,0.48-0.88,1.12-1.91,1.91c-1.03,0.79-2.26,1.19-3.67,1.19c-1.42,0-2.64-0.4-3.67-1.19c-1.03-0.79-1.72-1.57-2.05-2.34
	l-8.42-24.84c-5.33,15.74-8.04,23.76-8.14,24.05c-0.1,0.29-0.31,0.7-0.65,1.22c-0.34,0.53-0.72,1.01-1.15,1.44
	c-1.1,1.1-2.42,1.66-3.96,1.66c-1.54,0-2.8-0.36-3.78-1.08c-0.98-0.72-1.64-1.44-1.98-2.16l-0.5-1.08L46.87,9.36
	c-0.53-1.58-0.79-2.76-0.79-3.53c0-1.92,1.61-3.43,4.82-4.54c1.39-0.48,2.65-0.72,3.78-0.72c1.13,0,1.99,0.38,2.59,1.15
	c0.6,0.77,1.14,1.94,1.62,3.53l7.92,24.05l7.85-23.69c0.67-2.02,1.9-3.41,3.67-4.18c0.77-0.34,1.76-0.5,2.99-0.5
	c1.22,0,2.36,0.4,3.42,1.19c1.06,0.79,1.73,1.57,2.02,2.34l8.28,24.98l7.92-24.19c0.38-1.1,0.7-1.92,0.94-2.45
	c0.24-0.53,0.68-1.04,1.33-1.55s1.45-0.76,2.41-0.76C108.6,0.5,109.73,0.74,111.02,1.22z"/>
<path id="E" d="M132.55,40.97h22.18c1.1,0,1.93,0.04,2.48,0.11c0.55,0.07,1.19,0.3,1.91,0.68c1.3,0.67,1.94,2.54,1.94,5.62
	c0,3.36-0.89,5.33-2.66,5.9c-0.82,0.29-2.06,0.43-3.74,0.43h-28.51c-3.36,0-5.33-0.91-5.9-2.74c-0.29-0.77-0.43-1.99-0.43-3.67V7.27
	c0-2.45,0.46-4.12,1.37-5c0.91-0.89,2.64-1.33,5.18-1.33h28.37c1.1,0,1.93,0.04,2.48,0.11c0.55,0.07,1.19,0.3,1.91,0.68
	c1.3,0.67,1.94,2.54,1.94,5.62c0,3.36-0.89,5.33-2.66,5.9c-0.82,0.29-2.06,0.43-3.74,0.43h-22.1v7.27h14.26
	c1.1,0,1.93,0.04,2.48,0.11c0.55,0.07,1.19,0.3,1.91,0.68c1.3,0.67,1.94,2.54,1.94,5.62c0,3.36-0.91,5.33-2.74,5.9
	c-0.82,0.29-2.06,0.43-3.74,0.43h-14.11V40.97z"/>
<path id="S" d="M166.53,46.3c-1.25-1.54-1.87-2.92-1.87-4.14c0-1.22,1.03-2.84,3.1-4.86c1.2-1.15,2.47-1.73,3.82-1.73
	c1.34,0,3.22,1.2,5.62,3.6c0.67,0.82,1.63,1.6,2.88,2.34c1.25,0.74,2.4,1.12,3.46,1.12c4.46,0,6.7-1.82,6.7-5.47
	c0-1.1-0.61-2.03-1.84-2.77c-1.22-0.74-2.75-1.28-4.57-1.62c-1.82-0.33-3.79-0.88-5.9-1.62c-2.11-0.74-4.08-1.62-5.9-2.63
	c-1.82-1.01-3.35-2.6-4.57-4.79c-1.22-2.18-1.84-4.81-1.84-7.88c0-4.22,1.57-7.91,4.72-11.05c3.14-3.14,7.43-4.72,12.85-4.72
	c2.88,0,5.51,0.37,7.88,1.12c2.38,0.74,4.02,1.5,4.93,2.27l1.8,1.37c1.49,1.39,2.23,2.57,2.23,3.53c0,0.96-0.58,2.28-1.73,3.96
	c-1.63,2.4-3.31,3.6-5.04,3.6c-1.01,0-2.26-0.48-3.74-1.44c-0.14-0.1-0.42-0.33-0.83-0.72c-0.41-0.38-0.78-0.7-1.12-0.94
	c-1.01-0.62-2.29-0.94-3.85-0.94c-1.56,0-2.86,0.37-3.89,1.12c-1.03,0.74-1.55,1.78-1.55,3.1c0,1.32,0.61,2.39,1.84,3.2
	c1.22,0.82,2.75,1.37,4.57,1.66c1.82,0.29,3.82,0.73,5.98,1.33c2.16,0.6,4.15,1.33,5.98,2.2c1.82,0.86,3.35,2.36,4.57,4.5
	c1.22,2.14,1.84,4.76,1.84,7.88c0,3.12-0.62,5.87-1.87,8.24c-1.25,2.38-2.88,4.21-4.9,5.51c-3.89,2.54-8.04,3.82-12.46,3.82
	c-2.26,0-4.39-0.28-6.41-0.83s-3.65-1.24-4.9-2.05c-2.54-1.54-4.32-3.02-5.33-4.46L166.53,46.3z"/>
<path id="O" d="M232.49,0.29c7.1,0,13.27,2.57,18.5,7.7c5.23,5.14,7.85,11.51,7.85,19.12c0,7.61-2.5,14.09-7.49,19.44
	c-4.99,5.35-11.14,8.03-18.43,8.03c-7.3,0-13.5-2.64-18.61-7.92c-5.11-5.28-7.67-11.57-7.67-18.86c0-3.98,0.72-7.72,2.16-11.2
	c1.44-3.48,3.36-6.4,5.76-8.75c2.4-2.35,5.16-4.2,8.28-5.54C225.96,0.96,229.17,0.29,232.49,0.29z M219.38,27.43
	c0,4.27,1.38,7.74,4.14,10.4c2.76,2.66,5.84,4,9.25,4c3.41,0,6.48-1.3,9.22-3.89c2.74-2.59,4.1-6.07,4.1-10.44
	c0-4.37-1.38-7.87-4.14-10.51c-2.76-2.64-5.84-3.96-9.25-3.96c-3.41,0-6.48,1.33-9.22,4S219.38,23.16,219.38,27.43z"/>
<path id="O_1_" d="M232.49,0.29c7.1,0,13.27,2.57,18.5,7.7c5.23,5.14,7.85,11.51,7.85,19.12c0,7.61-2.5,14.09-7.49,19.44
	c-4.99,5.35-11.14,8.03-18.43,8.03c-7.3,0-13.5-2.64-18.61-7.92c-5.11-5.28-7.67-11.57-7.67-18.86c0-3.98,0.72-7.72,2.16-11.2
	c1.44-3.48,3.36-6.4,5.76-8.75c2.4-2.35,5.16-4.2,8.28-5.54C225.96,0.96,229.17,0.29,232.49,0.29z M219.38,27.43
	c0,4.27,1.38,7.74,4.14,10.4c2.76,2.66,5.84,4,9.25,4c3.41,0,6.48-1.3,9.22-3.89c2.74-2.59,4.1-6.07,4.1-10.44
	c0-4.37-1.38-7.87-4.14-10.51c-2.76-2.64-5.84-3.96-9.25-3.96c-3.41,0-6.48,1.33-9.22,4S219.38,23.16,219.38,27.43z"/>
<path id="M" d="M319.61,2.95c0.38,0.72,0.61,1.37,0.68,1.94c0.07,0.58,0.11,1.42,0.11,2.52v39.96c0,3.31-0.91,5.26-2.73,5.83
	c-0.91,0.29-2.06,0.43-3.46,0.43s-2.5-0.12-3.31-0.36c-0.82-0.24-1.44-0.53-1.87-0.86c-0.43-0.34-0.77-0.82-1.01-1.44
	c-0.24-0.82-0.36-2.06-0.36-3.74V23.11c-1.2,1.49-2.95,3.85-5.26,7.09c-2.3,3.24-3.77,5.27-4.39,6.08c-0.62,0.82-1.06,1.38-1.3,1.69
	c-0.24,0.31-0.83,0.74-1.76,1.3c-0.94,0.55-1.94,0.83-3.02,0.83s-2.06-0.25-2.95-0.76c-0.89-0.5-1.52-1-1.91-1.48l-0.58-0.79
	c-0.96-1.2-2.86-3.76-5.69-7.67c-2.83-3.91-4.37-6.01-4.61-6.3v24.26c0,1.1-0.04,1.93-0.11,2.48c-0.07,0.55-0.3,1.16-0.69,1.84
	c-0.72,1.3-2.59,1.94-5.62,1.94c-2.93,0-4.75-0.65-5.47-1.94c-0.38-0.67-0.61-1.3-0.68-1.87c-0.07-0.58-0.11-1.44-0.11-2.59V7.27
	c0-1.1,0.04-1.93,0.11-2.48c0.07-0.55,0.3-1.19,0.68-1.91c0.72-1.25,2.59-1.87,5.62-1.87c1.29,0,2.41,0.16,3.35,0.47
	c0.94,0.31,1.55,0.64,1.84,0.97l0.43,0.43l16.34,21.46c8.16-10.8,13.61-17.93,16.34-21.38c0.82-1.3,2.75-1.94,5.8-1.94
	C317.07,1.01,318.93,1.66,319.61,2.95z"/>
<path id="E_1_" d="M338.9,40.97h22.18c1.1,0,1.93,0.04,2.48,0.11c0.55,0.07,1.19,0.3,1.91,0.68c1.3,0.67,1.94,2.54,1.94,5.62
	c0,3.36-0.89,5.33-2.66,5.9c-0.82,0.29-2.06,0.43-3.74,0.43h-28.51c-3.36,0-5.33-0.91-5.9-2.74c-0.29-0.77-0.43-1.99-0.43-3.67V7.27
	c0-2.45,0.46-4.12,1.37-5c0.91-0.89,2.64-1.33,5.18-1.33h28.37c1.1,0,1.93,0.04,2.48,0.11c0.55,0.07,1.19,0.3,1.91,0.68
	c1.3,0.67,1.94,2.54,1.94,5.62c0,3.36-0.89,5.33-2.66,5.9c-0.82,0.29-2.06,0.43-3.74,0.43h-22.1v7.27h14.26
	c1.1,0,1.93,0.04,2.48,0.11c0.55,0.07,1.19,0.3,1.91,0.68c1.3,0.67,1.94,2.54,1.94,5.62c0,3.36-0.91,5.33-2.74,5.9
	c-0.82,0.29-2.06,0.43-3.74,0.43H338.9V40.97z"/>
<path id="G" d="M417.81,21.89h12.67c2.59,0.1,4.18,0.77,4.75,2.02c0.48,0.91,0.72,2.26,0.72,4.03v15.84c0,1.54-0.67,3-2.02,4.39
	c-4.03,4.18-10.08,6.26-18.14,6.26c-7.15,0-13.37-2.7-18.65-8.1s-7.92-11.92-7.92-19.55c0-7.63,2.69-14,8.06-19.12
	C402.67,2.56,409,0,416.3,0c5.66,0,11.02,1.87,16.06,5.62c1.3,0.96,1.94,2.03,1.94,3.2c0,1.18-0.55,2.53-1.66,4.07
	c-1.87,2.54-3.58,3.82-5.11,3.82c-0.91,0-2.38-0.66-4.39-1.98c-2.02-1.32-4.42-1.98-7.2-1.98c-3.65,0-6.89,1.28-9.72,3.85
	c-2.83,2.57-4.25,5.93-4.25,10.08c0,4.15,1.44,7.68,4.32,10.58c2.88,2.9,6.14,4.36,9.79,4.36c2.64,0,5.01-0.43,7.13-1.3v-7.85h-5.69
	c-1.49,0-2.54-0.19-3.17-0.58c-0.62-0.38-1.03-0.95-1.22-1.69c-0.19-0.74-0.29-1.75-0.29-3.02c0-1.27,0.11-2.29,0.32-3.06
	c0.22-0.77,0.61-1.3,1.19-1.58C415.22,22.1,416.37,21.89,417.81,21.89z"/>
<path id="I" d="M441.71,7.27c0-1.1,0.04-1.93,0.11-2.48c0.07-0.55,0.3-1.19,0.68-1.91c0.67-1.3,2.54-1.94,5.62-1.94
	c3.36,0,5.35,0.89,5.98,2.66c0.24,0.82,0.36,2.06,0.36,3.74v40.03c0,1.15-0.04,1.99-0.11,2.52c-0.07,0.53-0.3,1.15-0.68,1.87
	c-0.67,1.3-2.54,1.94-5.62,1.94c-3.36,0-5.33-0.91-5.9-2.74c-0.29-0.77-0.43-1.99-0.43-3.67V7.27z"/>
<path id="F" d="M495.14,0.94c1.1,0,1.93,0.04,2.48,0.11c0.55,0.07,1.18,0.3,1.87,0.68c0.7,0.38,1.19,1.03,1.48,1.94
	c0.29,0.91,0.43,2.14,0.43,3.67c0,1.54-0.14,2.76-0.43,3.67c-0.29,0.91-0.79,1.55-1.51,1.91s-1.36,0.58-1.91,0.65
	c-0.55,0.07-1.4,0.11-2.56,0.11h-22.03v7.27h14.18c1.15,0,2,0.04,2.56,0.11c0.55,0.07,1.19,0.3,1.91,0.68
	c1.25,0.72,1.87,2.62,1.87,5.69c0,3.36-0.91,5.35-2.74,5.98c-0.77,0.24-1.99,0.36-3.67,0.36h-14.11v13.61
	c0,1.15-0.04,1.99-0.11,2.52c-0.07,0.53-0.3,1.15-0.68,1.87c-0.67,1.3-2.54,1.94-5.62,1.94c-3.36,0-5.33-0.91-5.9-2.74
	c-0.29-0.77-0.43-1.99-0.43-3.67V7.27c0-2.45,0.46-4.12,1.37-5c0.91-0.89,2.64-1.33,5.18-1.33H495.14z"/>
<path id="S_1_" d="M506.87,46.3c-1.25-1.54-1.87-2.92-1.87-4.14c0-1.22,1.03-2.84,3.1-4.86c1.2-1.15,2.47-1.73,3.82-1.73
	c1.34,0,3.22,1.2,5.62,3.6c0.67,0.82,1.63,1.6,2.88,2.34c1.25,0.74,2.4,1.12,3.46,1.12c4.46,0,6.7-1.82,6.7-5.47
	c0-1.1-0.61-2.03-1.84-2.77c-1.22-0.74-2.75-1.28-4.57-1.62c-1.83-0.33-3.79-0.88-5.9-1.62c-2.11-0.74-4.08-1.62-5.9-2.63
	c-1.82-1.01-3.35-2.6-4.57-4.79c-1.22-2.18-1.84-4.81-1.84-7.88c0-4.22,1.57-7.91,4.72-11.05c3.14-3.14,7.43-4.72,12.85-4.72
	c2.88,0,5.51,0.37,7.88,1.12c2.38,0.74,4.02,1.5,4.93,2.27l1.8,1.37c1.49,1.39,2.23,2.57,2.23,3.53c0,0.96-0.58,2.28-1.73,3.96
	c-1.63,2.4-3.31,3.6-5.04,3.6c-1.01,0-2.26-0.48-3.74-1.44c-0.14-0.1-0.42-0.33-0.83-0.72c-0.41-0.38-0.78-0.7-1.12-0.94
	c-1.01-0.62-2.29-0.94-3.85-0.94c-1.56,0-2.86,0.37-3.89,1.12c-1.03,0.74-1.55,1.78-1.55,3.1c0,1.32,0.61,2.39,1.84,3.2
	c1.22,0.82,2.75,1.37,4.57,1.66c1.82,0.29,3.82,0.73,5.98,1.33c2.16,0.6,4.15,1.33,5.98,2.2c1.82,0.86,3.35,2.36,4.57,4.5
	c1.22,2.14,1.84,4.76,1.84,7.88c0,3.12-0.62,5.87-1.87,8.24s-2.88,4.21-4.9,5.51c-3.89,2.54-8.04,3.82-12.46,3.82
	c-2.26,0-4.39-0.28-6.41-0.83s-3.65-1.24-4.9-2.05c-2.54-1.54-4.32-3.02-5.33-4.46L506.87,46.3z"/>
</svg>
