<?xml version="1.0" encoding="utf-8"?>
<!-- Generator: Adobe Illustrator 24.3.0, SVG Export Plug-In . SVG Version: 6.00 Build 0)  -->
<svg version="1.1" id="Layer_1" xmlns="http://www.w3.org/2000/svg" xmlns:xlink="http://www.w3.org/1999/xlink" x="0px" y="0px"
	 viewBox="0 0 110 55" style="enable-background:new 0 0 110 55;" xml:space="preserve">
<style type="text/css">
	.st0{fill:#FFFFFF;}
</style>
<path class="st0" d="M24.98,33.6c4.78,3.26,10.62,2.82,14.95,0.02c3.66-2.37,6.24-6.42,6.19-11.35c0-3.73-1.5-7.11-3.93-9.57
	c-2.47-2.49-5.89-4.04-9.68-4.04c-5.29-0.05-9.55,2.9-11.82,6.96c-2.44,4.36-2.59,10,0.75,14.54 M21.44,30.16L8.93,42.54
	c-0.55,0.53-0.29,1.51,0.24,2.29c0.23,0.33,0.5,0.63,0.79,0.85c0.9,0.71,1.94,0.88,2.47,0.35L24.98,33.6 M22.75,22.27
	c0-5.29,4.28-9.57,9.57-9.57c12.69,0.5,12.69,18.64,0,19.14C27.04,31.84,22.75,27.56,22.75,22.27z"/>
<path class="st0" d="M100.26,29.95c0,0-10.79,10.79-10.79,10.79c-3.28,2.78-7.9-1.41-4.8-4.8c0,0,5-5,5-5H67.14
	c-1.87,0-3.39-1.52-3.39-3.39c0-1.87,1.52-3.39,3.39-3.39h22.52c0,0-5-5-5-5c-3.1-3.21,1.59-7.9,4.8-4.8
	c0,0,10.79,10.79,10.79,10.79c0.54,0.54,0.99,1.72,0.99,2.4C101.25,28.49,100.87,29.34,100.26,29.95z"/>
</svg>
